<svg width="250" height="250" viewBox="0 0 250 250" fill="none" xmlns="http://www.w3.org/2000/svg">
<path d="M110.923 249.298C71.3921 244.701 35.8974 221.19 16.2713 186.603C-1.40911 155.445 -4.85362 118.385 6.78505 84.5396C25.3604 30.5224 77.5213 -3.91833 134.28 0.357447C192.673 4.75629 239.991 48.683 248.607 106.491C257.199 164.14 225.406 219.309 170.893 241.342C153.447 248.393 129.949 251.511 110.923 249.298ZM79.9257 120.602H186.665L216.877 170.793C218.975 167.051 223.475 154.324 225.082 147.587C226.815 140.319 226.973 138.436 226.966 125.188C226.959 109.917 226.125 103.943 222.429 92.6811C219.972 85.193 212.107 70.1997 207.264 63.77C198.288 51.855 183.634 39.5697 170.562 33.0009C163.573 29.489 150.408 25.2561 142.149 23.8651C132.874 22.3029 116.704 22.2707 108.209 23.7975C89.505 27.1592 73.5088 34.5632 59.1038 46.5264C41.4081 61.2225 29.3481 81.6674 24.3563 105.433C22.1121 116.117 22.0845 133.006 24.2933 144.07C28.0385 162.831 36.9036 180.667 48.9199 193.618L52.8551 197.86H79.5601L79.9257 120.602Z" fill="white"/>
</svg>
